<svg width="20" height="18" viewBox="0 0 20 18" fill="none" xmlns="http://www.w3.org/2000/svg">
<path d="M17.15 4C16.9755 3.69772 16.7249 3.44638 16.4232 3.27095C16.1214 3.09552 15.779 3.00211 15.43 3H13V1C13 0.734784 12.8946 0.48043 12.7071 0.292893C12.5196 0.105357 12.2652 0 12 0H2C1.46957 0 0.960859 0.210714 0.585786 0.585786C0.210714 0.960859 0 1.46957 0 2V12C0.000359742 12.3507 0.0929428 12.6952 0.268461 12.9988C0.44398 13.3025 0.696262 13.5546 1 13.73C0.964196 14.6583 1.29861 15.5627 1.92967 16.2444C2.56073 16.9261 3.43674 17.3292 4.365 17.365C5.29326 17.4008 6.19772 17.0664 6.87941 16.4353C7.56111 15.8043 7.9642 14.9283 8 14H11.1C11.2106 14.8367 11.6215 15.6047 12.2561 16.161C12.8908 16.7173 13.706 17.024 14.55 17.024C15.394 17.024 16.2092 16.7173 16.8439 16.161C17.4785 15.6047 17.8894 14.8367 18 14C18.5304 14 19.0391 13.7893 19.4142 13.4142C19.7893 13.0391 20 12.5304 20 12V9C19.9984 8.81757 19.9502 8.63856 19.86 8.48L17.15 4ZM13 5H15.43L17.23 8H13V5ZM4.5 15C4.20333 15 3.91332 14.912 3.66664 14.7472C3.41997 14.5824 3.22771 14.3481 3.11418 14.074C3.00065 13.7999 2.97094 13.4983 3.02882 13.2074C3.0867 12.9164 3.22956 12.6491 3.43934 12.4393C3.64912 12.2296 3.91639 12.0867 4.20736 12.0288C4.49834 11.9709 4.79994 12.0007 5.07403 12.1142C5.34811 12.2277 5.58238 12.42 5.7472 12.6666C5.91203 12.9133 6 13.2033 6 13.5C6 13.8978 5.84196 14.2794 5.56066 14.5607C5.27936 14.842 4.89782 15 4.5 15ZM14.5 15C14.2033 15 13.9133 14.912 13.6666 14.7472C13.42 14.5824 13.2277 14.3481 13.1142 14.074C13.0006 13.7999 12.9709 13.4983 13.0288 13.2074C13.0867 12.9164 13.2296 12.6491 13.4393 12.4393C13.6491 12.2296 13.9164 12.0867 14.2074 12.0288C14.4983 11.9709 14.7999 12.0007 15.074 12.1142C15.3481 12.2277 15.5824 12.42 15.7472 12.6666C15.912 12.9133 16 13.2033 16 13.5C16 13.8978 15.842 14.2794 15.5607 14.5607C15.2794 14.842 14.8978 15 14.5 15Z" fill="#8BC34A"/>
</svg>
