<svg width="24" height="14" viewBox="0 0 24 14" fill="none" xmlns="http://www.w3.org/2000/svg">
<path d="M16.6667 7C16.6667 9.17617 14.5792 10.9375 12 10.9375C9.42083 10.9375 7.33333 9.17617 7.33333 7C7.33333 4.82383 9.42083 3.0625 12 3.0625C14.5792 3.0625 16.6667 4.82383 16.6667 7ZM11.3333 5.875V8.125H11C10.6333 8.125 10.3333 8.37813 10.3333 8.6875C10.3333 8.99687 10.6333 9.25 11 9.25H13C13.3667 9.25 13.6667 8.99687 13.6667 8.6875C13.6667 8.37813 13.3667 8.125 13 8.125H12.6667V5.3125C12.6667 5.00313 12.3667 4.75 12 4.75H11.3333C10.9667 4.75 10.6667 5.00313 10.6667 5.3125C10.6667 5.62187 10.9667 5.875 11.3333 5.875ZM0 2.5C0 1.25723 1.19375 0.25 2.66667 0.25H21.3333C22.8042 0.25 24 1.25723 24 2.5V11.5C24 12.741 22.8042 13.75 21.3333 13.75H2.66667C1.19375 13.75 0 12.741 0 11.5V2.5ZM2 4.1875V9.8125C3.47292 9.8125 4.66667 10.8215 4.66667 12.0625H19.3333C19.3333 10.8215 20.5292 9.8125 22 9.8125V4.1875C20.5292 4.1875 19.3333 3.17852 19.3333 1.9375H4.66667C4.66667 3.17852 3.47292 4.1875 2 4.1875Z" fill="#8BC34A"/>
</svg>
