<svg width="22" height="20" viewBox="0 0 22 20" fill="none" xmlns="http://www.w3.org/2000/svg">
<path d="M20.82 12.42L18.32 16.75C17.83 17.61 16.92 18.06 16 18H14V20L11.5 15.5L14 11V13H16.82L14.6 9.15L18.93 6.65L20.73 9.77C21.25 10.54 21.32 11.57 20.82 12.42ZM8.20997 0.0599976H13.21C14.19 0.0599976 15.04 0.629997 15.45 1.45L16.45 3.19L18.18 2.19L15.54 6.6L10.39 6.69L12.12 5.69L10.71 3.24L8.49997 7.09L4.15997 4.59L5.95997 1.47C6.36997 0.639997 7.21997 0.0599976 8.20997 0.0599976ZM4.04997 16.76L1.54997 12.43C1.05997 11.58 1.12997 10.56 1.63997 9.79L2.63997 8.06L0.909973 7.06L6.04997 7.14L8.69997 11.56L6.96997 10.56L5.55997 13H9.99997V18H6.39997C5.93148 18.0339 5.46287 17.9357 5.04744 17.7165C4.632 17.4973 4.28642 17.1659 4.04997 16.76Z" fill="#8BC34A"/>
</svg>
