<svg width="24" height="24" viewBox="0 0 24 24" fill="none" xmlns="http://www.w3.org/2000/svg">
<path d="M22.9008 9.97976C23.0361 10.7585 23.1036 11.5476 23.1024 12.338C23.1024 15.8682 21.8406 18.8531 19.6448 20.8734H19.6477C17.7274 22.6472 15.0877 23.6741 11.9579 23.6741C8.88059 23.6741 5.92935 22.4516 3.75339 20.2757C1.57742 18.0997 0.35498 15.1485 0.35498 12.0712C0.35498 8.99391 1.57742 6.04267 3.75339 3.8667C5.92935 1.69074 8.88059 0.468295 11.9579 0.468295C14.8382 0.434562 17.6199 1.51666 19.7202 3.48795L16.4076 6.80057C15.2101 5.6591 13.612 5.03402 11.9579 5.06014C8.93097 5.06014 6.35948 7.10225 5.44285 9.85213C4.95684 11.2931 4.95684 12.8536 5.44285 14.2946H5.4472C6.36818 17.0401 8.93532 19.0822 11.9622 19.0822C13.5257 19.0822 14.8687 18.6819 15.9101 17.9742H15.9058C16.5104 17.5736 17.0277 17.0546 17.4262 16.4486C17.8248 15.8427 18.0965 15.1622 18.2249 14.4483H11.9579V9.98121H22.9008V9.97976Z" fill="black"/>
</svg>
