<svg width="144" height="173" viewBox="0 0 144 173" fill="none" xmlns="http://www.w3.org/2000/svg">
<mask id="path-1-inside-1_656_933" fill="white">
<path fill-rule="evenodd" clip-rule="evenodd" d="M74.3635 20.4774C74.4287 19.929 74.926 19.5372 75.4745 19.6023L83.8183 20.593C84.0793 20.624 84.3172 20.757 84.4836 20.9604C89.7862 27.4408 97.2557 31.8815 105.896 32.9074C114.537 33.9334 122.838 31.3653 129.511 26.3069C129.72 26.1482 129.983 26.0745 130.244 26.1055L139.943 27.2572C140.491 27.3223 140.883 27.8197 140.818 28.3681L126.125 152.107C126.06 152.655 125.563 153.047 125.015 152.982L60.5461 145.327C59.9976 145.262 59.6058 144.765 59.671 144.216L74.3635 20.4774Z"/>
</mask>
<path fill-rule="evenodd" clip-rule="evenodd" d="M74.3635 20.4774C74.4287 19.929 74.926 19.5372 75.4745 19.6023L83.8183 20.593C84.0793 20.624 84.3172 20.757 84.4836 20.9604C89.7862 27.4408 97.2557 31.8815 105.896 32.9074C114.537 33.9334 122.838 31.3653 129.511 26.3069C129.72 26.1482 129.983 26.0745 130.244 26.1055L139.943 27.2572C140.491 27.3223 140.883 27.8197 140.818 28.3681L126.125 152.107C126.06 152.655 125.563 153.047 125.015 152.982L60.5461 145.327C59.9976 145.262 59.6058 144.765 59.671 144.216L74.3635 20.4774Z" fill="#EEC65F"/>
<path d="M60.5461 145.327L60.6527 144.429L60.5461 145.327ZM140.818 28.3681L139.92 28.2615L140.818 28.3681ZM129.511 26.3069L128.965 25.5862L129.511 26.3069ZM126.125 152.107L127.024 152.214L126.125 152.107ZM125.015 152.982L124.908 153.88L125.015 152.982ZM84.4836 20.9604L83.7837 21.5331L84.4836 20.9604ZM83.925 19.695L75.5811 18.7043L75.3678 20.5003L83.7117 21.4911L83.925 19.695ZM106.003 32.0094C97.6131 31.0132 90.35 26.7018 85.1835 20.3877L83.7837 21.5331C89.2223 28.1797 96.8982 32.7497 105.79 33.8054L106.003 32.0094ZM128.965 25.5862C122.463 30.5149 114.392 33.0056 106.003 32.0094L105.79 33.8054C114.681 34.8612 123.213 32.2158 130.057 27.0276L128.965 25.5862ZM140.05 26.3592L130.35 25.2075L130.137 27.0036L139.836 28.1552L140.05 26.3592ZM127.024 152.214L141.716 28.4748L139.92 28.2615L125.227 152L127.024 152.214ZM60.4394 146.225L124.908 153.88L125.121 152.084L60.6527 144.429L60.4394 146.225ZM73.4655 20.3708L58.7729 144.11L60.569 144.323L75.2616 20.584L73.4655 20.3708ZM60.6527 144.429C60.6002 144.423 60.5628 144.375 60.569 144.323L58.7729 144.11C58.6489 145.154 59.395 146.101 60.4394 146.225L60.6527 144.429ZM139.836 28.1552C139.889 28.1615 139.926 28.209 139.92 28.2615L141.716 28.4748C141.84 27.4304 141.094 26.4832 140.05 26.3592L139.836 28.1552ZM130.057 27.0276C130.085 27.0068 130.114 27.0008 130.137 27.0036L130.35 25.2075C129.851 25.1482 129.356 25.2896 128.965 25.5862L130.057 27.0276ZM75.5811 18.7043C74.5367 18.5802 73.5895 19.3264 73.4655 20.3708L75.2616 20.584C75.2678 20.5316 75.3154 20.4941 75.3678 20.5003L75.5811 18.7043ZM125.227 152C125.221 152.053 125.174 152.09 125.121 152.084L124.908 153.88C125.952 154.004 126.9 153.258 127.024 152.214L125.227 152ZM83.7117 21.4911C83.7346 21.4938 83.7619 21.5064 83.7837 21.5331L85.1835 20.3877C84.8725 20.0076 84.424 19.7542 83.925 19.695L83.7117 21.4911Z" fill="black" mask="url(#path-1-inside-1_656_933)"/>
<path d="M89.1349 100.129L109.491 81.3457L114.065 82.3733L93.709 101.157L89.1349 100.129ZM93.54 90.4081C92.46 90.1654 91.5425 89.7035 90.7876 89.0223C90.0327 88.3411 89.5176 87.4913 89.2424 86.473C88.9722 85.4335 88.9873 84.269 89.2878 82.9796C89.5883 81.6902 90.088 80.6458 90.787 79.8463C91.4859 79.0468 92.3261 78.5015 93.3076 78.2104C94.2941 77.8981 95.3273 77.8633 96.4073 78.1059C97.5085 78.3533 98.4235 78.8258 99.1523 79.5234C99.9072 80.2046 100.422 81.0544 100.698 82.0728C100.994 83.0959 100.992 84.2521 100.691 85.5415C100.396 86.8098 99.8854 87.8518 99.1604 88.6677C98.4566 89.4884 97.6139 90.0442 96.6323 90.3353C95.6719 90.6312 94.6412 90.6555 93.54 90.4081ZM94.2738 87.4031C94.8032 87.522 95.294 87.3765 95.7461 86.9664C96.2195 86.5611 96.5867 85.7983 96.8478 84.678C97.1089 83.5577 97.1161 82.7141 96.8694 82.147C96.6439 81.5847 96.2665 81.2441 95.7371 81.1252C95.2076 81.0063 94.6957 81.1471 94.2012 81.5476C93.7279 81.9529 93.3607 82.7157 93.0996 83.836C92.8384 84.9563 92.8312 85.7999 93.0779 86.367C93.3458 86.9388 93.7444 87.2842 94.2738 87.4031ZM106.793 104.396C105.692 104.149 104.764 103.685 104.009 103.004C103.275 102.327 102.771 101.48 102.495 100.461C102.225 99.4219 102.24 98.2574 102.541 96.968C102.841 95.6786 103.341 94.6342 104.04 93.8347C104.739 93.0352 105.569 92.4875 106.529 92.1916C107.515 91.8794 108.559 91.847 109.66 92.0943C110.762 92.3417 111.677 92.8142 112.405 93.5118C113.16 94.193 113.675 95.0428 113.951 96.0612C114.247 97.0843 114.245 98.2405 113.944 99.5299C113.644 100.819 113.131 101.872 112.406 102.688C111.707 103.487 110.867 104.033 109.885 104.324C108.925 104.62 107.894 104.644 106.793 104.396ZM107.495 101.384C108.024 101.503 108.526 101.36 108.999 100.955C109.472 100.55 109.84 99.7867 110.101 98.6664C110.362 97.5461 110.369 96.7025 110.122 96.1354C109.876 95.5684 109.488 95.2254 108.958 95.1065C108.45 94.9923 107.949 95.1355 107.454 95.536C106.981 95.9413 106.614 96.7041 106.353 97.8244C106.091 98.9447 106.084 99.7883 106.331 100.355C106.599 100.927 106.987 101.27 107.495 101.384Z" fill="black"/>
<mask id="path-4-inside-2_656_933" fill="white">
<path fill-rule="evenodd" clip-rule="evenodd" d="M36.9623 28.9015C36.7412 28.7595 36.4738 28.7064 36.2161 28.7576L27.9741 30.3931C27.4324 30.5006 27.0804 31.0269 27.1879 31.5686L51.4422 153.793C51.5497 154.335 52.076 154.687 52.6177 154.58L116.297 141.943C116.839 141.835 117.191 141.309 117.084 140.767L92.8293 18.5427C92.7218 18.001 92.1955 17.649 91.6538 17.7565L82.0735 19.6576C81.8158 19.7088 81.5889 19.8599 81.4388 20.0755C76.6553 26.948 69.5531 31.9552 61.0183 33.6488C52.4835 35.3425 44.0075 33.4266 36.9623 28.9015Z"/>
</mask>
<path fill-rule="evenodd" clip-rule="evenodd" d="M36.9623 28.9015C36.7412 28.7595 36.4738 28.7064 36.2161 28.7576L27.9741 30.3931C27.4324 30.5006 27.0804 31.0269 27.1879 31.5686L51.4422 153.793C51.5497 154.335 52.076 154.687 52.6177 154.58L116.297 141.943C116.839 141.835 117.191 141.309 117.084 140.767L92.8293 18.5427C92.7218 18.001 92.1955 17.649 91.6538 17.7565L82.0735 19.6576C81.8158 19.7088 81.5889 19.8599 81.4388 20.0755C76.6553 26.948 69.5531 31.9552 61.0183 33.6488C52.4835 35.3425 44.0075 33.4266 36.9623 28.9015Z" fill="#EEC65F"/>
<path d="M81.4388 20.0755L82.1811 20.5922L81.4388 20.0755ZM116.297 141.943L116.121 141.056L116.297 141.943ZM52.6177 154.58L52.7937 155.467L52.6177 154.58ZM27.9741 30.3931L28.1501 31.2802L27.9741 30.3931ZM36.2161 28.7576L36.3921 29.6446L36.2161 28.7576ZM36.9623 28.9015L36.4735 29.6624L36.9623 28.9015ZM36.0401 27.8705L27.7981 29.5061L28.1501 31.2802L36.3921 29.6446L36.0401 27.8705ZM26.3008 31.7447L50.5551 153.969L52.3292 153.617L28.0749 31.3926L26.3008 31.7447ZM52.7937 155.467L116.473 142.83L116.121 141.056L52.4417 153.693L52.7937 155.467ZM117.971 140.591L93.7163 18.3667L91.9423 18.7188L116.197 140.943L117.971 140.591ZM91.4778 16.8695L81.8975 18.7706L82.2496 20.5447L91.8298 18.6436L91.4778 16.8695ZM80.6966 19.5589C76.0358 26.255 69.1294 31.1173 60.8423 32.7618L61.1944 34.5359C69.9768 32.7931 77.2748 27.641 82.1811 20.5922L80.6966 19.5589ZM60.8423 32.7618C52.5552 34.4063 44.3155 32.5496 37.451 28.1406L36.4735 29.6624C43.6996 34.3036 52.4119 36.2787 61.1944 34.5359L60.8423 32.7618ZM81.8975 18.7706C81.4046 18.8684 80.9771 19.1558 80.6966 19.5589L82.1811 20.5922C82.2008 20.5639 82.2269 20.5492 82.2496 20.5447L81.8975 18.7706ZM93.7163 18.3667C93.5116 17.3351 92.5094 16.6647 91.4778 16.8695L91.8298 18.6436C91.8816 18.6333 91.932 18.6669 91.9423 18.7188L93.7163 18.3667ZM116.473 142.83C117.505 142.625 118.175 141.623 117.971 140.591L116.197 140.943C116.207 140.995 116.173 141.046 116.121 141.056L116.473 142.83ZM50.5551 153.969C50.7599 155.001 51.7621 155.671 52.7937 155.467L52.4417 153.693C52.3899 153.703 52.3395 153.669 52.3292 153.617L50.5551 153.969ZM27.7981 29.5061C26.7665 29.7108 26.0961 30.713 26.3008 31.7447L28.0749 31.3926C28.0647 31.3408 28.0983 31.2904 28.1501 31.2802L27.7981 29.5061ZM36.3921 29.6446C36.4148 29.6401 36.4445 29.6437 36.4735 29.6624L37.451 28.1406C37.0378 27.8752 36.5329 27.7727 36.0401 27.8705L36.3921 29.6446Z" fill="black" mask="url(#path-4-inside-2_656_933)"/>
<path d="M65.8451 93.7165L79.4028 69.5629L84.0706 69.1271L70.5129 93.2807L65.8451 93.7165ZM67.0315 83.1101C65.9294 83.213 64.9141 83.0571 63.9857 82.6424C63.0572 82.2278 62.3048 81.5787 61.7285 80.6952C61.1503 79.79 60.8049 78.6779 60.6924 77.3587C60.5799 76.0396 60.7325 74.8918 61.1502 73.9155C61.5679 72.9392 62.1986 72.161 63.0421 71.5809C63.8839 70.9791 64.8558 70.6268 65.958 70.5239C67.0817 70.419 68.0979 70.5857 69.0066 71.024C69.935 71.4387 70.6874 72.0878 71.2638 72.9713C71.8617 73.8528 72.217 74.9531 72.3295 76.2723C72.4402 77.5698 72.2768 78.7185 71.8393 79.7185C71.4234 80.7164 70.7937 81.5055 69.9501 82.0856C69.1281 82.6637 68.1553 83.0052 67.0315 83.1101ZM66.8011 80.0254C67.3413 79.975 67.7631 79.6849 68.0665 79.1552C68.3914 78.6235 68.505 77.7846 68.4072 76.6384C68.3095 75.4923 68.0557 74.6877 67.6459 74.2246C67.2577 73.7595 66.7935 73.5521 66.2532 73.6026C65.713 73.653 65.2696 73.9451 64.923 74.4788C64.5981 75.0105 64.4845 75.8494 64.5822 76.9956C64.68 78.1417 64.9338 78.9464 65.3436 79.4094C65.775 79.8705 66.2608 80.0758 66.8011 80.0254ZM83.9578 92.3198C82.8341 92.4247 81.808 92.2698 80.8795 91.8551C79.9727 91.4384 79.2311 90.7883 78.6548 89.9048C78.0766 88.9997 77.7312 87.8876 77.6187 86.5684C77.5061 85.2492 77.6587 84.1015 78.0765 83.1252C78.4942 82.1489 79.114 81.3717 79.936 80.7936C80.7778 80.1918 81.7605 79.8385 82.8842 79.7336C84.008 79.6287 85.0242 79.7954 85.9329 80.2337C86.8613 80.6484 87.6137 81.2974 88.1901 82.1809C88.788 83.0624 89.1433 84.1628 89.2558 85.4819C89.3683 86.8011 89.2058 87.9607 88.7683 88.9606C88.3506 89.9369 87.72 90.7151 86.8764 91.2952C86.0544 91.8733 85.0815 92.2148 83.9578 92.3198ZM83.6949 89.2381C84.2352 89.1877 84.6678 88.8966 84.9928 88.3649C85.3177 87.8332 85.4313 86.9943 85.3335 85.8481C85.2358 84.702 84.982 83.8973 84.5722 83.4342C84.1624 82.9711 83.6874 82.7648 83.1471 82.8153C82.6284 82.8637 82.1958 83.1548 81.8493 83.6885C81.5243 84.2201 81.4107 85.0591 81.5085 86.2052C81.6063 87.3514 81.8601 88.156 82.2699 88.6191C82.7013 89.0802 83.1763 89.2865 83.6949 89.2381Z" fill="black"/>
</svg>
