<svg width="41" height="45" viewBox="0 0 41 45" fill="none" xmlns="http://www.w3.org/2000/svg">
<path fill-rule="evenodd" clip-rule="evenodd" d="M28.1719 16.3C28.1719 18.4038 27.4057 20.4214 26.0418 21.909C24.6779 23.3966 22.828 24.2323 20.8992 24.2323C18.9703 24.2323 17.1205 23.3966 15.7566 21.909C14.3927 20.4214 13.6265 18.4038 13.6265 16.3C13.6265 14.1962 14.3927 12.1786 15.7566 10.691C17.1205 9.2034 18.9703 8.36768 20.8992 8.36768C22.828 8.36768 24.6779 9.2034 26.0418 10.691C27.4057 12.1786 28.1719 14.1962 28.1719 16.3ZM24.5356 16.3C24.5356 17.3519 24.1524 18.3607 23.4705 19.1045C22.7885 19.8483 21.8636 20.2661 20.8992 20.2661C19.9348 20.2661 19.0098 19.8483 18.3279 19.1045C17.6459 18.3607 17.2628 17.3519 17.2628 16.3C17.2628 15.2481 17.6459 14.2393 18.3279 13.4955C19.0098 12.7517 19.9348 12.3338 20.8992 12.3338C21.8636 12.3338 22.7885 12.7517 23.4705 13.4955C24.1524 14.2393 24.5356 15.2481 24.5356 16.3Z" fill="black"/>
<path fill-rule="evenodd" clip-rule="evenodd" d="M20.8989 0.435791C9.85347 0.435791 0.898926 10.2024 0.898926 22.2496C0.898926 34.2968 9.85347 44.0635 20.8989 44.0635C31.9444 44.0635 40.8989 34.2968 40.8989 22.2496C40.8989 10.2024 31.9444 0.435791 20.8989 0.435791ZM4.53529 22.2496C4.53529 26.3943 5.83165 30.2097 8.00438 33.2398C9.53025 31.0543 11.4987 29.2831 13.7561 28.0646C16.0134 26.8462 18.4985 26.2134 21.0171 26.2158C23.5032 26.2132 25.957 26.8296 28.1915 28.018C30.4261 29.2063 32.3825 30.9354 33.9117 33.0733C35.487 30.8197 36.5477 28.1894 37.006 25.3999C37.4643 22.6105 37.307 19.7421 36.5471 17.0321C35.7872 14.3222 34.4466 11.8485 32.6362 9.81582C30.8257 7.78314 28.5976 6.24989 26.136 5.34293C23.6744 4.43597 21.0502 4.18137 18.4805 4.6002C15.9108 5.01903 13.4695 6.09924 11.3585 7.75147C9.24756 9.40369 7.52767 11.5804 6.34116 14.1016C5.15465 16.6227 4.53562 19.4158 4.53529 22.2496ZM20.8989 40.0973C17.1425 40.1035 13.4994 38.694 10.5862 36.1074C11.7588 34.2765 13.3195 32.7816 15.1356 31.7499C16.9517 30.7183 18.9694 30.1803 21.0171 30.1819C23.0392 30.1802 25.0325 30.7046 26.8315 31.7117C28.6305 32.7188 30.1832 34.1795 31.3607 35.9725C28.4249 38.6431 24.7218 40.1032 20.8989 40.0973Z" fill="black"/>
</svg>
