<svg width="19" height="171" viewBox="0 0 19 171" fill="none" xmlns="http://www.w3.org/2000/svg">
<line x1="11" y1="0.155273" x2="11" y2="65.1553" stroke="black"/>
<line x1="11" y1="105.155" x2="11" y2="170.155" stroke="black"/>
<path d="M1.22 86.7553C1.22 85.7313 1.42267 84.8673 1.828 84.1633C2.23333 83.4486 2.77733 82.9153 3.46 82.5633C4.15333 82.2113 4.91067 82.0353 5.732 82.0353C7.076 82.0353 8.12667 82.4406 8.884 83.2513C9.652 84.0513 10.036 85.1713 10.036 86.6113C10.036 87.6673 9.83333 88.5473 9.428 89.2513C9.02267 89.9553 8.47867 90.4779 7.796 90.8193C7.11333 91.1606 6.35067 91.3313 5.508 91.3313C4.17467 91.3313 3.124 90.9313 2.356 90.1313C1.59867 89.3206 1.22 88.1953 1.22 86.7553ZM5.668 90.2113C6.18 90.2113 6.55867 89.9393 6.804 89.3953C7.06 88.8406 7.188 87.9766 7.188 86.8033C7.188 85.5553 7.06533 84.6379 6.82 84.0513C6.58533 83.4539 6.18533 83.1553 5.62 83.1553C4.57467 83.1553 4.052 84.2913 4.052 86.5633C4.052 87.8006 4.18 88.7179 4.436 89.3153C4.692 89.9126 5.10267 90.2113 5.668 90.2113ZM11.4536 90.0993L12.4296 89.9553V83.9393L11.4856 83.6513V82.4033L14.1416 82.0513H14.1896L14.6376 82.3873V82.7713L14.5896 84.0993H14.6376C14.7123 83.8539 14.883 83.5713 15.1496 83.2513C15.4163 82.9206 15.7523 82.6379 16.1576 82.4033C16.5736 82.1579 17.0216 82.0353 17.5016 82.0353C17.779 82.0353 17.9923 82.0726 18.1416 82.1473V84.9313C17.971 84.8033 17.7843 84.7019 17.5816 84.6273C17.3896 84.5526 17.139 84.5153 16.8296 84.5153C16.4456 84.5153 16.099 84.5686 15.7896 84.6753C15.4803 84.7713 15.235 84.8833 15.0536 85.0113V89.9553L16.8136 90.1153V91.1553H11.4536V90.0993Z" fill="black"/>
</svg>
