<svg width="100" height="109" viewBox="0 0 100 109" fill="none" xmlns="http://www.w3.org/2000/svg">
<path d="M12.5 13.5273H25V27.0542H12.5V13.5273Z" fill="black"/>
<path d="M37.5 0V40.5805H0V0H37.5ZM31.25 6.76342H6.25V33.8171H31.25V6.76342ZM25 81.1611H12.5V94.6879H25V81.1611Z" fill="black"/>
<path d="M37.5 67.6347V108.215H0V67.6347H37.5ZM6.25 74.3982V101.452H31.25V74.3982H6.25ZM75 13.5273H87.5V27.0542H75V13.5273Z" fill="black"/>
<path d="M62.5 0V40.5805H100V0H62.5ZM93.75 6.76342V33.8171H68.75V6.76342H93.75ZM50 6.76342V0H56.25V13.5268H50V27.0537H43.75V6.76342H50ZM50 40.5805V27.0537H56.25V40.5805H50ZM37.5 54.1074V47.344H43.75V40.5805H50V54.1074H56.25V47.344H87.5V54.1074H62.5V60.8708H43.75V54.1074H37.5ZM37.5 54.1074V60.8708H12.5V54.1074H6.25V60.8708H0V47.344H18.75V54.1074H37.5ZM100 60.8708H93.75V47.344H100V60.8708ZM93.75 60.8708H87.5V74.3977H100V67.6342H93.75V60.8708ZM68.75 60.8708H81.25V67.6342H75V74.3977H68.75V60.8708ZM81.25 81.1611V74.3977H75V81.1611H68.75V87.9245H56.25V94.6879H75V81.1611H81.25ZM81.25 81.1611H100V87.9245H87.5V94.6879H81.25V81.1611ZM56.25 74.3977V81.1611H62.5V67.6342H43.75V74.3977H56.25Z" fill="black"/>
<path d="M43.75 81.1616H50V101.452H75V108.215H43.75V81.1616ZM100 94.6885V108.215H81.25V101.452H93.75V94.6885H100Z" fill="black"/>
</svg>
