<svg width="34" height="39" viewBox="0 0 34 39" fill="none" xmlns="http://www.w3.org/2000/svg">
<path d="M24.749 21.4032C25.999 21.4032 27.099 20.6286 27.6657 19.4571L33.6324 7.19448C33.7728 6.90808 33.8449 6.58507 33.8414 6.25741C33.8379 5.92974 33.7591 5.60878 33.6126 5.32629C33.4661 5.0438 33.2571 4.80956 33.0063 4.64676C32.7554 4.48396 32.4714 4.39823 32.1824 4.39807H7.51569L5.94902 0.619141H0.499023V4.39807H3.83236L9.83236 18.7391L7.58236 23.3494C6.36569 25.8813 7.96569 28.9611 10.499 28.9611H30.499V25.1822H10.499L12.3324 21.4032H24.749ZM9.09902 8.177H29.349L24.749 17.6243H13.049L9.09902 8.177ZM10.499 30.8506C8.66569 30.8506 7.18236 32.5511 7.18236 34.6295C7.18236 36.7079 8.66569 38.4084 10.499 38.4084C12.3324 38.4084 13.8324 36.7079 13.8324 34.6295C13.8324 32.5511 12.3324 30.8506 10.499 30.8506ZM27.1657 30.8506C25.3324 30.8506 23.849 32.5511 23.849 34.6295C23.849 36.7079 25.3324 38.4084 27.1657 38.4084C28.999 38.4084 30.499 36.7079 30.499 34.6295C30.499 32.5511 28.999 30.8506 27.1657 30.8506Z" fill="black"/>
</svg>
